<svg width="20" height="19" viewBox="0 0 20 19" fill="none" xmlns="http://www.w3.org/2000/svg">
<path d="M9.50833 8.19171C8.92832 8.19171 8.46242 8.64271 8.46242 9.20417C8.46242 9.76562 8.92832 10.2166 9.50833 10.2166C10.0883 10.2166 10.5543 9.76562 10.5543 9.20417C10.5543 8.64271 10.0883 8.19171 9.50833 8.19171ZM9.50833 0C4.25973 0 0 4.12347 0 9.20417C0 14.2849 4.25973 18.4083 9.50833 18.4083C14.7569 18.4083 19.0167 14.2849 19.0167 9.20417C19.0167 4.12347 14.7569 0 9.50833 0ZM11.5907 11.2199L3.80333 14.7267L7.42601 7.18845L15.2133 3.68167L11.5907 11.2199Z" fill="#626262"/>
</svg>
