<svg width="23" height="23" viewBox="0 0 23 23" fill="none" xmlns="http://www.w3.org/2000/svg">
<path d="M12.7163 0.464057C12.3632 0.166047 11.8958 0 11.4099 0C10.924 0 10.4565 0.166047 10.1034 0.464057L0.891873 8.23618C0.609823 8.47446 0.385239 8.76164 0.23188 9.08013C0.0785209 9.39862 -0.000383318 9.74171 1.40009e-06 10.0884V19.5446C0.000505528 20.2197 0.301255 20.867 0.836141 21.3442C1.37103 21.8214 2.09628 22.0895 2.85247 22.0895H5.70493C6.46145 22.0895 7.18699 21.8212 7.72193 21.3436C8.25687 20.8661 8.5574 20.2183 8.5574 19.5429V15.2987C8.5574 15.0735 8.65757 14.8576 8.83589 14.6984C9.0142 14.5392 9.25605 14.4498 9.50822 14.4498H13.3115C13.5637 14.4498 13.8055 14.5392 13.9838 14.6984C14.1622 14.8576 14.2623 15.0735 14.2623 15.2987V19.5429C14.2623 20.2183 14.5629 20.8661 15.0978 21.3436C15.6327 21.8212 16.3583 22.0895 17.1148 22.0895H19.9673C20.7238 22.0895 21.4493 21.8212 21.9843 21.3436C22.5192 20.8661 22.8197 20.2183 22.8197 19.5429V10.0867C22.8196 9.74018 22.7403 9.39734 22.5866 9.07915C22.4329 8.76096 22.2081 8.47412 21.926 8.23618L12.7163 0.460661V0.464057Z" fill="#626262"/>
</svg>
