<svg width="25" height="24" viewBox="0 0 25 24" fill="none" xmlns="http://www.w3.org/2000/svg">
<path d="M1 20.6356V3.45444C1 2.80349 1.30053 2.17919 1.83548 1.71889C2.37043 1.25859 3.09597 1 3.8525 1H22.9642C23.1912 1 23.4089 1.07758 23.5694 1.21567C23.7298 1.35376 23.82 1.54105 23.82 1.73633V17.8301M3.8525 18.1811H23.82M3.8525 23.09H23.82" stroke="#BEDE61" stroke-width="1.5" stroke-linecap="round"/>
<path d="M3.375 23.09C2.74511 23.09 2.14102 22.8314 1.69562 22.3711C1.25022 21.9108 1 21.2865 1 20.6356C1 19.9846 1.25022 19.3603 1.69562 18.9C2.14102 18.4397 2.74511 18.1811 3.375 18.1811" stroke="#BEDE61" stroke-width="1.5" stroke-linecap="round" stroke-linejoin="round"/>
<path d="M6.9375 5.90889H14.0625" stroke="#BEDE61" stroke-width="1.5" stroke-linecap="round"/>
</svg>
